<svg width="200" height="200" viewBox="0 0 24 24" fill="none" xmlns="http://www.w3.org/2000/svg">
  <path d="M12 2C9.243 2 7 4.243 7 7C7 7.711 7.184 8.373 7.512 8.952L12 18L16.488 8.952C16.816 8.373 17 7.711 17 7C17 4.243 14.757 2 12 2ZM12 5C13.1046 5 14 5.89543 14 7C14 8.10457 13.1046 9 12 9C10.8954 9 10 8.10457 10 7C10 5.89543 10.8954 5 12 5Z" fill="#2684FF"/>
  <path d="M12 11C13.6569 11 15 9.65685 15 8H13C13 8.55228 12.5523 9 12 9C11.4477 9 11 8.55228 11 8H9C9 9.65685 10.3431 11 12 11Z" fill="#0052CC"/>
</svg>
