<svg xmlns="http://www.w3.org/2000/svg" viewBox="0 0 256 272" width="256" height="272">
  <defs>
    <linearGradient id="nodejs-gradient" x1="50%" x2="50%" y1="0%" y2="100%">
      <stop offset="0%" style="stop-color:#3C873A;stop-opacity:1" />
      <stop offset="100%" style="stop-color:#205B27;stop-opacity:1" />
    </linearGradient>
  </defs>
  <path d="M116.104 7.36c13.226-7.626 31.566-7.578 44.753.12l87.249 50.32c13.202 7.632 21.434 22.066 21.434 37.696v100.625c0 15.63-8.232 30.063-21.434 37.695l-87.249 50.32c-13.195 7.701-31.525 7.747-44.753.12l-86.988-50.319C15.92 226.184 7.716 211.75 7.716 196.121V95.496c0-15.63 8.205-30.064 21.4-37.696l86.988-50.32zm22.383 25.456c-3.457 0-7.222.858-10.761 2.946l-86.984 50.323c-4.212 2.419-10.29 8.451-10.29 14.991v100.625c0 6.54 6.078 12.572 10.29 14.991l86.984 50.319c4.177 2.453 11.975 2.476 16.204 0l87.25-50.319c4.211-2.419 10.317-8.451 10.317-14.991V95.496c0-6.54-6.106-12.572-10.317-14.991l-87.25-50.323c-3.526-2.088-7.29-2.946-10.761-2.946zM93.372 206.276c-25.167-6.136-35.242-21.014-37.782-37.694-1.585-9.74 6.004-14.356 10.75-14.356 5.234 0 8.511 2.505 10.682 9.32 3.162 10.507 11.597 21.29 31.593 21.29 19.124 0 27.942-8.419 27.942-19.21 0-12.765-10.162-17.409-27.235-23.655l-.011-.003c-20.876-6.693-47.254-14.463-43.206-46.107 2.07-17.021 16.076-30.105 39.38-30.105 17.207 0 30.367 5.24 38.769 23.43 1.955 4.224.39 14.705-10.535 14.705-3.406 0-7.33-1.53-11.527-8.358-4.595-8.014-10.04-10.517-16.667-10.517-11.44 0-20.353 6.85-20.353 16.637 0 11.56 10.436 15.6 27.602 21.422 21.436 7.072 42.731 14.317 42.731 45.796 0 25.91-21.055 33.797-42.274 33.797-33.124 0-40.616-16.366-43.632-30.893-1.74-7.634 3.124-14.023 10.325-14.023 6.936 0 9.583 4.27 10.905 10.582 1.67 7.69 5.966 17.367 22.405 17.367 13.733 0 22.727-5.855 22.727-16.278 0-10.997-8.134-14.587-26.017-20.136zm94.272 4.222c-8.472 0-13.857-4.063-13.857-10.632 0-6.582 5.427-10.64 13.857-10.64 8.5 0 13.864 4.058 13.864 10.64 0 6.57-5.364 10.631-13.864 10.631zm-27.704-50.173v-84.458c0-.635.559-1.292 1.197-1.292h23.454c.642 0 1.186.657 1.186 1.292v84.454c0 23.568 34.163 23.966 34.163 0v-84.454c0-.635.53-1.292 1.177-1.292h23.454c.636 0 1.186.657 1.186 1.292v84.458c0 38.986-54.363 39.89-54.363 0z" fill="url(#nodejs-gradient)"/>
</svg>
