<svg width="256" height="256" viewBox="0 0 256 256" fill="none" xmlns="http://www.w3.org/2000/svg">
  <!-- Expo Symbol -->
  <path d="M128 8C191.2 8 244 60.8 244 124C244 187.2 191.2 240 128 240C64.8 240 12 187.2 12 124C12 60.8 64.8 8 128 8ZM128 20C67.2 20 20 67.2 20 124C20 180.8 67.2 228 128 228C188.8 228 236 180.8 236 124C236 67.2 188.8 20 128 20Z" fill="#000000"/>
  <!-- React Symbol -->
  <path d="M128 88C145.7 88 160 102.3 160 120C160 137.7 145.7 152 128 152C110.3 152 96 137.7 96 120C96 102.3 110.3 88 128 88ZM128 104C121.4 104 116 109.4 116 116C116 122.6 121.4 128 128 128C134.6 128 140 122.6 140 116C140 109.4 134.6 104 128 104Z" fill="#00D8FF"/>
  <path d="M128 48C142.8 48 156.6 49.6 169 52.6C171.5 44.8 173.8 37 176.1 29.4C162.1 25.6 146.8 24 128 24C109.2 24 93.9 25.6 79.9 29.4C82.2 37 84.5 44.8 87 52.6C99.4 49.6 113.2 48 128 48ZM128 192C113.2 192 99.4 190.4 87 187.4C84.5 195.2 82.2 203 79.9 210.6C93.9 214.4 109.2 216 128 216C146.8 216 162.1 214.4 176.1 210.6C173.8 203 171.5 195.2 169 187.4C156.6 190.4 142.8 192 128 192ZM62.6 74.8C58.6 81.6 55.1 88.7 52.2 96.2C71.3 106.2 95 112 120 112C145 112 168.7 106.2 187.8 96.2C184.9 88.7 181.4 81.6 177.4 74.8C161.8 82.7 142.8 88 120 88C97.2 88 78.2 82.7 62.6 74.8ZM52.2 151.8C55.1 159.3 58.6 166.4 62.6 173.2C78.2 165.3 97.2 160 120 160C142.8 160 161.8 165.3 177.4 173.2C181.4 166.4 184.9 159.3 187.8 151.8C168.7 141.8 145 136 120 136C95 136 71.3 141.8 52.2 151.8Z" fill="#00D8FF"/>
</svg>
